<?xml version="1.0" encoding="UTF-8" standalone="no"?><!DOCTYPE svg PUBLIC "-//W3C//DTD SVG 1.1//EN" "http://www.w3.org/Graphics/SVG/1.1/DTD/svg11.dtd"><svg width="100%" height="100%" viewBox="0 0 742 742" version="1.1" xmlns="http://www.w3.org/2000/svg" xmlns:xlink="http://www.w3.org/1999/xlink" xml:space="preserve" xmlns:serif="http://www.serif.com/" style="fill-rule:evenodd;clip-rule:evenodd;stroke-linejoin:round;stroke-miterlimit:2;"><g id="Calc-icon" serif:id="Calc icon"><path d="M741.2,69.212c0,-37.893 -30.764,-68.657 -68.657,-68.657l-222.686,0c-37.893,0 -68.657,30.764 -68.657,68.657l0,222.686c0,37.893 30.764,68.657 68.657,68.657l222.686,0c37.893,0 68.657,-30.764 68.657,-68.657l0,-222.686Z" style="fill:url(#_Linear1);"/><path d="M360.013,449.891c-0,-37.893 -30.764,-68.658 -68.657,-68.658l-222.686,0c-37.893,0 -68.657,30.765 -68.657,68.658l-0,222.685c-0,37.893 30.764,68.657 68.657,68.657l222.686,0c37.893,0 68.657,-30.764 68.657,-68.657l-0,-222.685Z" style="fill:url(#_Linear2);"/><path d="M360.013,68.704c-0,-37.893 -30.764,-68.658 -68.657,-68.658l-222.686,0c-37.893,0 -68.657,30.765 -68.657,68.658l-0,222.685c-0,37.893 30.764,68.657 68.657,68.657l222.686,0c37.893,0 68.657,-30.764 68.657,-68.657l-0,-222.685Z" style="fill:url(#_Linear3);"/><path d="M741.2,449.891c0,-37.893 -30.764,-68.658 -68.657,-68.658l-222.686,0c-37.893,0 -68.657,30.765 -68.657,68.658l0,222.685c0,37.893 30.764,68.657 68.657,68.657l222.686,0c37.893,0 68.657,-30.764 68.657,-68.657l0,-222.685Z" style="fill:url(#_Linear4);"/><g id="Suma-Icon" serif:id="Suma Icon"><path d="M158.826,171.27c-0,5.847 4.747,10.593 10.593,10.593l21.187,0c5.847,0 10.594,-4.746 10.594,-10.593l0,-78.813c0,-5.847 -4.747,-10.594 -10.594,-10.594l-21.187,0c-5.846,0 -10.593,4.747 -10.593,10.594l-0,78.813Z" style="fill:url(#_Linear5);"/><path d="M201.2,192.457c0,-5.847 -4.747,-10.594 -10.594,-10.594l-21.187,0c-5.846,0 -10.593,4.747 -10.593,10.594l-0,78.813c-0,5.847 4.747,10.593 10.593,10.593l21.187,0c5.847,0 10.594,-4.746 10.594,-10.593l0,-78.813Z" style="fill:#f5eaea;"/><path d="M269.419,203.05c5.847,0 10.594,-4.746 10.594,-10.593l-0,-21.187c-0,-5.847 -4.747,-10.594 -10.594,-10.594l-178.813,0c-5.846,0 -10.593,4.747 -10.593,10.594l-0,21.187c-0,5.847 4.747,10.593 10.593,10.593l178.813,0Z" style="fill:url(#_Linear6);"/></g><g id="Multiplicación-Icon" serif:id="Multiplicación Icon"><path d="M157.541,570.541c4.134,4.134 10.847,4.134 14.981,0l14.982,-14.981c4.134,-4.135 4.134,-10.848 -0,-14.982l-55.729,-55.729c-4.135,-4.134 -10.848,-4.134 -14.982,-0l-14.982,14.982c-4.134,4.134 -4.134,10.847 0,14.981l55.73,55.729Z" style="fill:url(#_Linear7);"/><path d="M202.485,555.56c-4.134,-4.135 -10.847,-4.135 -14.981,-0l-14.982,14.981c-4.134,4.134 -4.134,10.847 0,14.982l55.729,55.729c4.135,4.134 10.848,4.134 14.982,-0l14.981,-14.982c4.135,-4.134 4.135,-10.847 0,-14.981l-55.729,-55.729Z" style="fill:#f5eaea;"/><path d="M258.214,514.812c4.135,-4.134 4.135,-10.847 0,-14.981l-14.981,-14.982c-4.134,-4.134 -10.847,-4.134 -14.982,-0l-126.44,126.44c-4.134,4.134 -4.134,10.847 0,14.981l14.982,14.982c4.134,4.134 10.847,4.134 14.982,-0l126.439,-126.44Z" style="fill:url(#_Linear8);"/></g><g id="Resta-Icon" serif:id="Resta Icon"><path d="M650.606,201.742c5.847,0 10.594,-4.747 10.594,-10.593l0,-21.187c0,-5.847 -4.747,-10.594 -10.594,-10.594l-178.812,0c-5.847,0 -10.594,4.747 -10.594,10.594l0,21.187c0,5.846 4.747,10.593 10.594,10.593l178.812,0Z" style="fill:url(#_Linear9);"/></g><g id="Divisón-Icon" serif:id="Divisón Icon"><g id="Suma-Icon1" serif:id="Suma Icon"></g><circle cx="561.2" cy="497.672" r="21.187" style="fill:url(#_Linear10);"/><circle cx="561.2" cy="624.795" r="21.187" style="fill:url(#_Linear11);"/><path d="M650.606,581.062c5.847,-0 10.594,-4.747 10.594,-10.594l-0,-21.187c-0,-5.846 -4.747,-10.593 -10.594,-10.593l-178.812,-0c-5.847,-0 -10.594,4.747 -10.594,10.593l0,21.187c0,5.847 4.747,10.594 10.594,10.594l178.812,-0Z" style="fill:url(#_Linear12);"/></g></g><g id="Calc-icon1" serif:id="Calc icon"><g id="Suma-Icon2" serif:id="Suma Icon"></g><g id="Multiplicación-Icon1" serif:id="Multiplicación Icon"></g><g id="Resta-Icon1" serif:id="Resta Icon"></g><g id="Divisón-Icon1" serif:id="Divisón Icon"><g id="Suma-Icon3" serif:id="Suma Icon"></g></g></g><g id="_-Paleta-de-Colores" serif:id="´Paleta de Colores"></g><g id="Operadores"><g id="Suma-Icon4" serif:id="Suma Icon"></g><g id="Multiplicación-Icon2" serif:id="Multiplicación Icon"></g><g id="Resta-Icon2" serif:id="Resta Icon"></g><g id="Divisón-Icon2" serif:id="Divisón Icon"><g id="Suma-Icon5" serif:id="Suma Icon"></g></g></g><g id="Resta-Icon3" serif:id="Resta Icon"></g><rect id="calc_icon" x="0" y="0" width="741.2" height="741.233" style="fill:none;"/><g id="reptmath_logo"><g id="logo"></g></g><g id="logo_negativo"></g><g id="logo_negativo1" serif:id="logo_negativo"></g><g id="logo_neutral"></g><g id="logo_neutral1" serif:id="logo_neutral"></g><g id="reptmath_icon"></g><g id="Hipotenusa"></g><g id="Ecuaciones"></g><g id="m.c.m"></g><g id="m.c.m1" serif:id="m.c.m"></g><g id="M.C.D"></g><g id="Calculadora"><g id="Operadores1" serif:id="Operadores"><g id="Suma-Icon6" serif:id="Suma Icon"></g><g id="Multiplicación-Icon3" serif:id="Multiplicación Icon"></g><g id="Resta-Icon4" serif:id="Resta Icon"></g><g id="Divisón-Icon3" serif:id="Divisón Icon"><g id="Suma-Icon7" serif:id="Suma Icon"></g></g></g></g><defs><linearGradient id="_Linear1" x1="0" y1="0" x2="1" y2="0" gradientUnits="userSpaceOnUse" gradientTransform="matrix(360,0,0,360,381.2,180.555)"><stop offset="0" style="stop-color:#5e6f64;stop-opacity:1"/><stop offset="1" style="stop-color:#7fcd91;stop-opacity:1"/></linearGradient><linearGradient id="_Linear2" x1="0" y1="0" x2="1" y2="0" gradientUnits="userSpaceOnUse" gradientTransform="matrix(360,0,0,360,0.0129005,561.233)"><stop offset="0" style="stop-color:#5e6f64;stop-opacity:1"/><stop offset="1" style="stop-color:#7fcd91;stop-opacity:1"/></linearGradient><linearGradient id="_Linear3" x1="0" y1="0" x2="1" y2="0" gradientUnits="userSpaceOnUse" gradientTransform="matrix(360,0,0,360,0.0129005,180.046)"><stop offset="0" style="stop-color:#5b5656;stop-opacity:1"/><stop offset="1" style="stop-color:#5e6f64;stop-opacity:1"/></linearGradient><linearGradient id="_Linear4" x1="0" y1="0" x2="1" y2="0" gradientUnits="userSpaceOnUse" gradientTransform="matrix(360,0,0,360,381.2,561.233)"><stop offset="0" style="stop-color:#5b5656;stop-opacity:1"/><stop offset="1" style="stop-color:#5e6f64;stop-opacity:1"/></linearGradient><linearGradient id="_Linear5" x1="0" y1="0" x2="1" y2="0" gradientUnits="userSpaceOnUse" gradientTransform="matrix(-4.6017e-13,-100,235.993,-1.08597e-12,180.013,181.863)"><stop offset="0" style="stop-color:#4d4646;stop-opacity:1"/><stop offset="0.19" style="stop-color:#938a8a;stop-opacity:1"/><stop offset="0.4" style="stop-color:#d7cccc;stop-opacity:1"/><stop offset="1" style="stop-color:#f5eaea;stop-opacity:1"/></linearGradient><linearGradient id="_Linear6" x1="0" y1="0" x2="1" y2="0" gradientUnits="userSpaceOnUse" gradientTransform="matrix(200,2.84217e-14,-1.34146e-13,943.971,80.0129,181.863)"><stop offset="0" style="stop-color:#f5eaea;stop-opacity:1"/><stop offset="1" style="stop-color:#ffdecf;stop-opacity:1"/></linearGradient><linearGradient id="_Linear7" x1="0" y1="0" x2="1" y2="0" gradientUnits="userSpaceOnUse" gradientTransform="matrix(-70.7107,-70.7107,166.872,-166.872,180.013,563.05)"><stop offset="0" style="stop-color:#4d4646;stop-opacity:1"/><stop offset="0.19" style="stop-color:#938a8a;stop-opacity:1"/><stop offset="0.4" style="stop-color:#d7cccc;stop-opacity:1"/><stop offset="1" style="stop-color:#f5eaea;stop-opacity:1"/></linearGradient><linearGradient id="_Linear8" x1="0" y1="0" x2="1" y2="0" gradientUnits="userSpaceOnUse" gradientTransform="matrix(141.421,-141.421,667.488,667.488,109.302,633.761)"><stop offset="0" style="stop-color:#f5eaea;stop-opacity:1"/><stop offset="1" style="stop-color:#ffdecf;stop-opacity:1"/></linearGradient><linearGradient id="_Linear9" x1="0" y1="0" x2="1" y2="0" gradientUnits="userSpaceOnUse" gradientTransform="matrix(200,1.42109e-13,-3.01087e-14,42.3742,461.2,180.555)"><stop offset="0" style="stop-color:#f5eaea;stop-opacity:1"/><stop offset="1" style="stop-color:#ffdecf;stop-opacity:1"/></linearGradient><linearGradient id="_Linear10" x1="0" y1="0" x2="1" y2="0" gradientUnits="userSpaceOnUse" gradientTransform="matrix(42.3742,0,0,42.3742,540.013,497.672)"><stop offset="0" style="stop-color:#f5eaea;stop-opacity:1"/><stop offset="1" style="stop-color:#ffdecf;stop-opacity:1"/></linearGradient><linearGradient id="_Linear11" x1="0" y1="0" x2="1" y2="0" gradientUnits="userSpaceOnUse" gradientTransform="matrix(42.3742,0,0,42.3742,540.013,624.795)"><stop offset="0" style="stop-color:#f5eaea;stop-opacity:1"/><stop offset="1" style="stop-color:#ffdecf;stop-opacity:1"/></linearGradient><linearGradient id="_Linear12" x1="0" y1="0" x2="1" y2="0" gradientUnits="userSpaceOnUse" gradientTransform="matrix(200,1.35863,-6.41251,943.971,461.2,559.875)"><stop offset="0" style="stop-color:#f5eaea;stop-opacity:1"/><stop offset="1" style="stop-color:#ffdecf;stop-opacity:1"/></linearGradient></defs></svg>