<?xml version="1.0" encoding="UTF-8" standalone="no"?><!DOCTYPE svg PUBLIC "-//W3C//DTD SVG 1.1//EN" "http://www.w3.org/Graphics/SVG/1.1/DTD/svg11.dtd"><svg width="100%" height="100%" viewBox="0 0 369 369" version="1.1" xmlns="http://www.w3.org/2000/svg" xmlns:xlink="http://www.w3.org/1999/xlink" xml:space="preserve" xmlns:serif="http://www.serif.com/" style="fill-rule:evenodd;clip-rule:evenodd;stroke-linecap:round;stroke-linejoin:round;stroke-miterlimit:1.5;"><g id="Calc-icon" serif:id="Calc icon"><g id="Suma-Icon" serif:id="Suma Icon"></g><g id="Multiplicación-Icon" serif:id="Multiplicación Icon"></g><g id="Resta-Icon" serif:id="Resta Icon"></g><g id="Divisón-Icon" serif:id="Divisón Icon"><g id="Suma-Icon1" serif:id="Suma Icon"></g></g></g><g id="Calc-icon1" serif:id="Calc icon"><g id="Suma-Icon2" serif:id="Suma Icon"></g><g id="Multiplicación-Icon1" serif:id="Multiplicación Icon"></g><g id="Resta-Icon1" serif:id="Resta Icon"></g><g id="Divisón-Icon1" serif:id="Divisón Icon"><g id="Suma-Icon3" serif:id="Suma Icon"></g></g></g><g id="_-Paleta-de-Colores" serif:id="´Paleta de Colores"></g><g id="Operadores"><g id="Suma-Icon4" serif:id="Suma Icon"></g><g id="Multiplicación-Icon2" serif:id="Multiplicación Icon"></g><g id="Resta-Icon2" serif:id="Resta Icon"></g><g id="Divisón-Icon2" serif:id="Divisón Icon"><g id="Suma-Icon5" serif:id="Suma Icon"></g></g></g><g id="Resta-Icon3" serif:id="Resta Icon"></g><g id="reptmath_logo"><g id="logo"></g></g><g id="logo_negativo"></g><g id="logo_negativo1" serif:id="logo_negativo"></g><g id="logo_neutral"></g><g id="logo_neutral1" serif:id="logo_neutral"></g><g id="reptmath_icon"></g><g id="Hipotenusa"></g><g id="Ecuaciones"></g><g id="m.c.m"></g><g id="m.c.m1" serif:id="m.c.m"></g><g id="M.C.D"></g><g id="Calculadora"><g id="Operadores1" serif:id="Operadores"><g id="Suma-Icon6" serif:id="Suma Icon"></g><g id="Multiplicación-Icon3" serif:id="Multiplicación Icon"></g><g id="Resta-Icon4" serif:id="Resta Icon"></g><g id="Divisón-Icon3" serif:id="Divisón Icon"><g id="Suma-Icon7" serif:id="Suma Icon"></g></g></g></g><rect id="Calculator" x="0" y="0" width="368.4" height="368.4" style="fill:none;"/><clipPath id="_clip1"><rect x="0" y="0" width="368.4" height="368.4"/></clipPath><g clip-path="url(#_clip1)"><g id="Calculadora1" serif:id="Calculadora"><path d="M368.44,92.11c0,-50.837 -41.273,-92.11 -92.11,-92.11l-184.22,-0c-50.837,-0 -92.11,41.273 -92.11,92.11l-0,184.22c-0,50.837 41.273,92.11 92.11,92.11l184.22,0c50.837,0 92.11,-41.273 92.11,-92.11l0,-184.22Z" style="fill:url(#_Linear2);"/><path d="M346.29,102.869c-0,-44.724 -36.311,-81.034 -81.035,-81.034l-162.07,-0c-44.724,-0 -81.034,36.31 -81.034,81.034l-0,162.07c-0,44.724 36.31,81.035 81.034,81.035l162.07,-0c44.724,-0 81.035,-36.311 81.035,-81.035l-0,-162.07Z" style="fill:none;stroke:url(#_Linear3);stroke-width:2.27px;"/><g id="Operadores2" serif:id="Operadores"><g id="Suma-Icon8" serif:id="Suma Icon"><path d="M106.416,250.392c1.989,1.989 5.219,1.989 7.208,0l7.208,-7.208c1.989,-1.989 1.989,-5.219 0,-7.208l-26.813,-26.813c-1.989,-1.989 -5.219,-1.989 -7.208,-0l-7.208,7.208c-1.989,1.989 -1.989,5.219 0,7.208l26.813,26.813Z" style="fill:url(#_Linear4);"/><path d="M128.04,243.184c-1.989,-1.989 -5.219,-1.989 -7.208,-0l-7.208,7.208c-1.989,1.989 -1.989,5.219 0,7.208l26.813,26.813c1.989,1.989 5.219,1.989 7.208,0l7.209,-7.208c1.989,-1.989 1.989,-5.219 -0,-7.208l-26.814,-26.813Z" style="fill:#f5eaea;"/><path d="M154.854,223.579c1.989,-1.989 1.989,-5.219 -0,-7.208l-7.209,-7.208c-1.989,-1.989 -5.219,-1.989 -7.208,-0l-60.834,60.834c-1.989,1.989 -1.989,5.219 0,7.208l7.208,7.208c1.989,1.989 5.219,1.989 7.208,0l60.835,-60.834Z" style="fill:url(#_Linear5);"/></g><g id="Multiplicación-Icon4" serif:id="Multiplicación Icon"><path d="M103.753,113.145c-0,2.814 2.284,5.097 5.097,5.097l10.194,0c2.813,0 5.096,-2.283 5.096,-5.097l0,-37.919c0,-2.813 -2.283,-5.097 -5.096,-5.097l-10.194,0c-2.813,0 -5.097,2.284 -5.097,5.097l-0,37.919Z" style="fill:url(#_Linear6);"/><path d="M124.14,123.339c0,-2.813 -2.283,-5.097 -5.096,-5.097l-10.194,0c-2.813,0 -5.097,2.284 -5.097,5.097l-0,37.92c-0,2.813 2.284,5.097 5.097,5.097l10.194,-0c2.813,-0 5.096,-2.284 5.096,-5.097l0,-37.92Z" style="fill:#f5eaea;"/><path d="M156.963,128.436c2.813,0 5.097,-2.284 5.097,-5.097l-0,-10.194c-0,-2.813 -2.284,-5.096 -5.097,-5.096l-86.033,-0c-2.813,-0 -5.097,2.283 -5.097,5.096l0,10.194c0,2.813 2.284,5.097 5.097,5.097l86.033,0Z" style="fill:url(#_Linear7);"/></g><g id="Resta-Icon5" serif:id="Resta Icon"><path d="M292.695,130.369c2.813,0 5.097,-2.284 5.097,-5.097l-0,-10.193c-0,-2.813 -2.284,-5.097 -5.097,-5.097l-86.033,-0c-2.813,-0 -5.097,2.284 -5.097,5.097l0,10.193c0,2.813 2.284,5.097 5.097,5.097l86.033,0Z" style="fill:url(#_Linear8);"/></g><g id="Divisón-Icon4" serif:id="Divisón Icon"><g id="Suma-Icon9" serif:id="Suma Icon"></g><circle cx="243.235" cy="214.549" r="10.194" style="fill:url(#_Linear9);"/><circle cx="243.235" cy="275.711" r="10.194" style="fill:url(#_Linear10);"/><path d="M286.251,254.67c2.813,-0 5.097,-2.284 5.097,-5.097l-0,-10.194c-0,-2.813 -2.284,-5.097 -5.097,-5.097l-86.033,0c-2.813,0 -5.096,2.284 -5.096,5.097l-0,10.194c-0,2.813 2.283,5.097 5.096,5.097l86.033,-0Z" style="fill:url(#_Linear11);"/></g></g></g></g><defs><linearGradient id="_Linear2" x1="0" y1="0" x2="1" y2="0" gradientUnits="userSpaceOnUse" gradientTransform="matrix(368.44,-2.41311e-14,0,368.44,-6.82121e-13,184.22)"><stop offset="0" style="stop-color:#5b5656;stop-opacity:1"/><stop offset="1" style="stop-color:#5e6f64;stop-opacity:1"/></linearGradient><linearGradient id="_Linear3" x1="0" y1="0" x2="1" y2="0" gradientUnits="userSpaceOnUse" gradientTransform="matrix(324.139,-2.12296e-14,0,324.139,22.1506,183.904)"><stop offset="0" style="stop-color:#7fcd91;stop-opacity:1"/><stop offset="0.15" style="stop-color:#b8dbbc;stop-opacity:1"/><stop offset="0.33" style="stop-color:#e5e6de;stop-opacity:1"/><stop offset="1" style="stop-color:#f5eaea;stop-opacity:1"/></linearGradient><linearGradient id="_Linear4" x1="0" y1="0" x2="1" y2="0" gradientUnits="userSpaceOnUse" gradientTransform="matrix(-34.0212,-34.0212,80.2875,-80.2875,117.228,246.788)"><stop offset="0" style="stop-color:#4d4646;stop-opacity:1"/><stop offset="0.19" style="stop-color:#938a8a;stop-opacity:1"/><stop offset="0.4" style="stop-color:#d7cccc;stop-opacity:1"/><stop offset="1" style="stop-color:#f5eaea;stop-opacity:1"/></linearGradient><linearGradient id="_Linear5" x1="0" y1="0" x2="1" y2="0" gradientUnits="userSpaceOnUse" gradientTransform="matrix(68.0423,-68.0423,321.15,321.15,83.2072,280.809)"><stop offset="0" style="stop-color:#7fcd91;stop-opacity:1"/><stop offset="0.44" style="stop-color:#dde4d8;stop-opacity:1"/><stop offset="1" style="stop-color:#f5eaea;stop-opacity:1"/></linearGradient><linearGradient id="_Linear6" x1="0" y1="0" x2="1" y2="0" gradientUnits="userSpaceOnUse" gradientTransform="matrix(-2.21403e-13,-48.1132,113.544,-5.22494e-13,113.947,118.242)"><stop offset="0" style="stop-color:#4d4646;stop-opacity:1"/><stop offset="0.19" style="stop-color:#938a8a;stop-opacity:1"/><stop offset="0.4" style="stop-color:#d7cccc;stop-opacity:1"/><stop offset="1" style="stop-color:#f5eaea;stop-opacity:1"/></linearGradient><linearGradient id="_Linear7" x1="0" y1="0" x2="1" y2="0" gradientUnits="userSpaceOnUse" gradientTransform="matrix(96.2264,1.36746e-14,-6.45421e-14,454.174,65.8335,118.242)"><stop offset="0" style="stop-color:#7fcd91;stop-opacity:1"/><stop offset="0.45" style="stop-color:#dce4d7;stop-opacity:1"/><stop offset="1" style="stop-color:#f5eaea;stop-opacity:1"/></linearGradient><linearGradient id="_Linear8" x1="0" y1="0" x2="1" y2="0" gradientUnits="userSpaceOnUse" gradientTransform="matrix(96.2264,6.8373e-14,-1.44862e-14,20.3876,201.565,120.176)"><stop offset="0" style="stop-color:#f5eaea;stop-opacity:1"/><stop offset="0.63" style="stop-color:#f7e8e6;stop-opacity:1"/><stop offset="0.83" style="stop-color:#fbe3db;stop-opacity:1"/><stop offset="1" style="stop-color:#ffdecf;stop-opacity:1"/></linearGradient><linearGradient id="_Linear9" x1="0" y1="0" x2="1" y2="0" gradientUnits="userSpaceOnUse" gradientTransform="matrix(20.3876,0,0,20.3876,233.041,214.549)"><stop offset="0" style="stop-color:#f5eaea;stop-opacity:1"/><stop offset="0.6" style="stop-color:#f7e8e5;stop-opacity:1"/><stop offset="0.81" style="stop-color:#fbe3da;stop-opacity:1"/><stop offset="1" style="stop-color:#ffdecf;stop-opacity:1"/></linearGradient><linearGradient id="_Linear10" x1="0" y1="0" x2="1" y2="0" gradientUnits="userSpaceOnUse" gradientTransform="matrix(20.3876,0,0,20.3876,233.041,275.711)"><stop offset="0" style="stop-color:#f5eaea;stop-opacity:1"/><stop offset="0.63" style="stop-color:#f7e8e6;stop-opacity:1"/><stop offset="0.83" style="stop-color:#fbe3db;stop-opacity:1"/><stop offset="1" style="stop-color:#ffdecf;stop-opacity:1"/></linearGradient><linearGradient id="_Linear11" x1="0" y1="0" x2="1" y2="0" gradientUnits="userSpaceOnUse" gradientTransform="matrix(96.2264,0.653678,-3.08526,454.174,195.122,244.476)"><stop offset="0" style="stop-color:#f5eaea;stop-opacity:1"/><stop offset="0.61" style="stop-color:#f7e8e5;stop-opacity:1"/><stop offset="0.82" style="stop-color:#fbe3da;stop-opacity:1"/><stop offset="1" style="stop-color:#ffdecf;stop-opacity:1"/></linearGradient></defs></svg>