<?xml version="1.0" encoding="UTF-8" standalone="no"?><!DOCTYPE svg PUBLIC "-//W3C//DTD SVG 1.1//EN" "http://www.w3.org/Graphics/SVG/1.1/DTD/svg11.dtd"><svg width="100%" height="100%" viewBox="0 0 369 369" version="1.1" xmlns="http://www.w3.org/2000/svg" xmlns:xlink="http://www.w3.org/1999/xlink" xml:space="preserve" xmlns:serif="http://www.serif.com/" style="fill-rule:evenodd;clip-rule:evenodd;stroke-linecap:round;stroke-linejoin:round;stroke-miterlimit:1.5;"><g id="Calc-icon" serif:id="Calc icon"><g id="Suma-Icon" serif:id="Suma Icon"></g><g id="Multiplicación-Icon" serif:id="Multiplicación Icon"></g><g id="Resta-Icon" serif:id="Resta Icon"></g><g id="Divisón-Icon" serif:id="Divisón Icon"><g id="Suma-Icon1" serif:id="Suma Icon"></g></g></g><g id="Calc-icon1" serif:id="Calc icon"><g id="Suma-Icon2" serif:id="Suma Icon"></g><g id="Multiplicación-Icon1" serif:id="Multiplicación Icon"></g><g id="Resta-Icon1" serif:id="Resta Icon"></g><g id="Divisón-Icon1" serif:id="Divisón Icon"><g id="Suma-Icon3" serif:id="Suma Icon"></g></g></g><g id="_-Paleta-de-Colores" serif:id="´Paleta de Colores"></g><g id="Operadores"><g id="Suma-Icon4" serif:id="Suma Icon"></g><g id="Multiplicación-Icon2" serif:id="Multiplicación Icon"></g><g id="Resta-Icon2" serif:id="Resta Icon"></g><g id="Divisón-Icon2" serif:id="Divisón Icon"><g id="Suma-Icon5" serif:id="Suma Icon"></g></g></g><g id="Resta-Icon3" serif:id="Resta Icon"></g><g id="reptmath_logo"><g id="logo"></g></g><g id="logo_negativo"></g><g id="logo_negativo1" serif:id="logo_negativo"></g><g id="logo_neutral"></g><g id="logo_neutral1" serif:id="logo_neutral"></g><g id="reptmath_icon"></g><g id="Hipotenusa"></g><g id="Ecuaciones"></g><g id="m.c.m"></g><g id="m.c.m1" serif:id="m.c.m"></g><g id="M.C.D"></g><g id="Calculadora"><g id="Operadores1" serif:id="Operadores"><g id="Suma-Icon6" serif:id="Suma Icon"></g><g id="Multiplicación-Icon3" serif:id="Multiplicación Icon"></g><g id="Resta-Icon4" serif:id="Resta Icon"></g><g id="Divisón-Icon3" serif:id="Divisón Icon"><g id="Suma-Icon7" serif:id="Suma Icon"></g></g></g></g><rect id="Conversiones" x="0" y="0" width="368.4" height="368.4" style="fill:none;"/><clipPath id="_clip1"><rect x="0" y="0" width="368.4" height="368.4"/></clipPath><g clip-path="url(#_clip1)"><g id="m.c.m2" serif:id="m.c.m"><path d="M368.4,92.11c-0,-50.837 -41.273,-92.11 -92.11,-92.11l-184.22,-0c-50.837,-0 -92.11,41.273 -92.11,92.11l-0,184.22c-0,50.837 41.273,92.11 92.11,92.11l184.22,0c50.837,0 92.11,-41.273 92.11,-92.11l-0,-184.22Z" style="fill:url(#_Linear2);"/><path d="M346.249,102.869c0,-44.724 -36.31,-81.034 -81.034,-81.034l-162.07,-0c-44.724,-0 -81.035,36.31 -81.035,81.034l0,162.07c0,44.724 36.311,81.035 81.035,81.035l162.07,-0c44.724,-0 81.034,-36.311 81.034,-81.035l0,-162.07Z" style="fill:none;stroke:url(#_Linear3);stroke-width:2.27px;"/><path d="M96.822,295.077l-9.524,-0l0,-39.072l-9.653,-0l-0,-6.719l19.177,-1.696l-0,47.487Z" style="fill:url(#_Linear4);fill-rule:nonzero;"/><rect x="115.086" y="286.727" width="9.523" height="8.349" style="fill:url(#_Linear5);fill-rule:nonzero;"/><path d="M165.051,276.584c0,6.284 -1.44,11.051 -4.321,14.302c-2.881,3.25 -6.778,4.876 -11.692,4.876c-4.958,-0 -8.882,-1.626 -11.774,-4.876c-2.892,-3.251 -4.338,-8.018 -4.338,-14.302l0,-10.469c0,-6.262 1.441,-11.029 4.322,-14.301c2.881,-3.273 6.789,-4.909 11.724,-4.909c4.914,0 8.823,1.636 11.725,4.909c2.903,3.272 4.354,8.039 4.354,14.301l0,10.469Zm-9.49,-11.458c-0,-3.758 -0.566,-6.511 -1.696,-8.26c-1.131,-1.748 -2.762,-2.623 -4.893,-2.623c-2.152,0 -3.783,0.869 -4.892,2.607c-1.109,1.738 -1.663,4.497 -1.663,8.276l-0,12.349c-0,3.823 0.56,6.604 1.68,8.342c1.119,1.738 2.766,2.606 4.941,2.606c2.131,0 3.75,-0.868 4.859,-2.606c1.109,-1.738 1.664,-4.519 1.664,-8.342l-0,-12.349Z" style="fill:url(#_Linear6);fill-rule:nonzero;"/><path d="M185.109,288.423c2.501,0 4.539,-0.926 6.116,-2.778c1.576,-1.852 2.364,-4.503 2.364,-7.952l0,-2.348c-1.065,1.348 -2.332,2.37 -3.799,3.066c-1.468,0.695 -3.05,1.043 -4.746,1.043c-4.414,0 -7.887,-1.44 -10.42,-4.321c-2.533,-2.881 -3.8,-6.778 -3.8,-11.692c0,-4.74 1.5,-8.681 4.501,-11.823c3.001,-3.142 6.816,-4.713 11.448,-4.713c4.848,0 8.784,1.669 11.806,5.006c3.022,3.338 4.534,8.029 4.534,14.074l-0,11.219c-0,5.762 -1.691,10.295 -5.072,13.6c-3.381,3.305 -7.692,4.958 -12.932,4.958c-1.652,-0 -3.353,-0.17 -5.104,-0.508c-1.75,-0.339 -3.375,-0.836 -4.876,-1.491l1.109,-6.905c1.414,0.543 2.81,0.94 4.191,1.19c1.381,0.25 2.941,0.375 4.68,0.375Zm1.533,-15.948c1.566,-0 2.936,-0.294 4.11,-0.881c1.174,-0.587 2.12,-1.37 2.837,-2.348l0,-4.37c0,-3.479 -0.609,-6.121 -1.826,-7.926c-1.218,-1.804 -2.87,-2.707 -4.958,-2.707c-1.913,0 -3.473,0.892 -4.68,2.675c-1.207,1.783 -1.81,3.957 -1.81,6.523c0,2.696 0.549,4.876 1.647,6.539c1.098,1.663 2.658,2.495 4.68,2.495Z" style="fill:url(#_Linear7);fill-rule:nonzero;"/><path d="M239.478,280.27l0.391,1.957l0.196,-0l6.751,-22.439l10.241,-0l-14.318,40.572c-1,2.522 -2.359,4.648 -4.077,6.376c-1.717,1.729 -4.294,2.593 -7.729,2.593c-0.805,0 -1.549,-0.065 -2.234,-0.195c-0.685,-0.131 -1.517,-0.316 -2.495,-0.555l1.109,-6.947c0.282,0.044 0.587,0.087 0.913,0.131c0.326,0.043 0.619,0.065 0.88,0.065c1.566,-0 2.773,-0.386 3.621,-1.158c0.848,-0.772 1.5,-1.734 1.956,-2.886l1.109,-2.74l-12.524,-35.256l10.241,-0l5.969,20.482Z" style="fill:url(#_Linear8);fill-rule:nonzero;"/><path d="M258.916,277.726c0,-5.566 1.201,-10.056 3.604,-13.47c2.403,-3.414 5.789,-5.12 10.159,-5.12c1.762,-0 3.349,0.38 4.762,1.141c1.413,0.761 2.653,1.848 3.718,3.261l0,-19.34l9.556,0l0,50.879l-8.186,-0l-0.783,-4.305c-1.109,1.63 -2.419,2.87 -3.93,3.718c-1.511,0.848 -3.245,1.272 -5.202,1.272c-4.327,-0 -7.691,-1.588 -10.094,-4.762c-2.403,-3.175 -3.604,-7.371 -3.604,-12.589l0,-0.685Zm9.491,0.69c-0,3.107 0.522,5.551 1.565,7.333c1.044,1.783 2.74,2.674 5.088,2.674c1.37,0 2.566,-0.279 3.588,-0.836c1.022,-0.558 1.859,-1.373 2.511,-2.444l0,-15.126c-0.652,-1.115 -1.484,-1.985 -2.495,-2.608c-1.011,-0.623 -2.19,-0.935 -3.539,-0.935c-2.326,-0 -4.027,1.039 -5.104,3.117c-1.076,2.078 -1.614,4.79 -1.614,8.136l-0,0.689Z" style="fill:url(#_Linear9);fill-rule:nonzero;"/><path d="M151.598,104.177l-9.523,-0l-0,-39.072l-9.654,-0l-0,-6.719l19.177,-1.696l-0,47.487Z" style="fill:url(#_Linear10);fill-rule:nonzero;"/><path d="M194.29,68.888l0.392,4.664c1.13,-1.696 2.549,-3.006 4.256,-3.93c1.707,-0.924 3.68,-1.386 5.919,-1.386c2.262,-0 4.197,0.5 5.806,1.5c1.609,1 2.826,2.511 3.653,4.533c1.087,-1.891 2.5,-3.37 4.24,-4.435c1.739,-1.066 3.783,-1.598 6.131,-1.598c3.479,-0 6.224,1.201 8.235,3.603c2.011,2.403 3.017,6.061 3.017,10.975l0,21.363l-9.523,-0l-0,-21.444c-0,-2.681 -0.435,-4.544 -1.305,-5.59c-0.87,-1.046 -2.163,-1.569 -3.881,-1.569c-1.348,-0 -2.517,0.299 -3.506,0.899c-0.989,0.599 -1.778,1.433 -2.365,2.5c0,0.414 0.011,0.769 0.033,1.063c0.022,0.294 0.033,0.594 0.033,0.899l-0,23.242l-9.491,-0l-0,-21.444c-0,-2.616 -0.435,-4.463 -1.305,-5.541c-0.87,-1.079 -2.174,-1.618 -3.914,-1.618c-1.282,-0 -2.408,0.245 -3.375,0.735c-0.968,0.491 -1.767,1.183 -2.397,2.076l-0,25.792l-9.491,-0l-0,-35.289l8.838,-0Z" style="fill:url(#_Linear11);fill-rule:nonzero;"/><path d="M189.383,135.245c0,-1.466 -0.582,-2.871 -1.618,-3.908c-1.037,-1.036 -2.442,-1.618 -3.908,-1.618l-0.003,-0c-1.466,-0 -2.871,0.582 -3.908,1.618c-1.036,1.037 -1.618,2.442 -1.618,3.908l-0,42.848l11.055,0c0,0 0,-30.155 0,-42.848Z" style="fill:url(#_Linear12);"/><path d="M186.774,216.672c-0.553,1.106 -1.683,1.804 -2.919,1.804c-1.236,0 -2.366,-0.698 -2.918,-1.804c-4.848,-9.695 -14.466,-28.931 -18.917,-37.832c-0.505,-1.012 -0.451,-2.213 0.143,-3.175c0.595,-0.962 1.645,-1.548 2.776,-1.548l37.833,0c1.131,0 2.181,0.586 2.776,1.548c0.594,0.962 0.648,2.163 0.142,3.175c-4.45,8.901 -14.068,28.137 -18.916,37.832Z" style="fill:url(#_Linear13);"/></g></g><defs><linearGradient id="_Linear2" x1="0" y1="0" x2="1" y2="0" gradientUnits="userSpaceOnUse" gradientTransform="matrix(368.44,-2.41311e-14,0,368.44,-0.0403003,184.22)"><stop offset="0" style="stop-color:#5b5656;stop-opacity:1"/><stop offset="1" style="stop-color:#5e6f64;stop-opacity:1"/></linearGradient><linearGradient id="_Linear3" x1="0" y1="0" x2="1" y2="0" gradientUnits="userSpaceOnUse" gradientTransform="matrix(324.139,-2.12296e-14,0,324.139,22.1103,183.904)"><stop offset="0" style="stop-color:#7fcd91;stop-opacity:1"/><stop offset="0.15" style="stop-color:#b8dbbc;stop-opacity:1"/><stop offset="0.33" style="stop-color:#e5e6de;stop-opacity:1"/><stop offset="1" style="stop-color:#f5eaea;stop-opacity:1"/></linearGradient><linearGradient id="_Linear4" x1="0" y1="0" x2="1" y2="0" gradientUnits="userSpaceOnUse" gradientTransform="matrix(29.0809,0,0,50.8787,75.068,269.637)"><stop offset="0" style="stop-color:#7fcd91;stop-opacity:1"/><stop offset="0.46" style="stop-color:#e3f4e7;stop-opacity:1"/><stop offset="1" style="stop-color:#fff;stop-opacity:1"/></linearGradient><linearGradient id="_Linear5" x1="0" y1="0" x2="1" y2="0" gradientUnits="userSpaceOnUse" gradientTransform="matrix(29.0809,0,0,50.8787,75.068,269.637)"><stop offset="0" style="stop-color:#7fcd91;stop-opacity:1"/><stop offset="0.46" style="stop-color:#e3f4e7;stop-opacity:1"/><stop offset="1" style="stop-color:#fff;stop-opacity:1"/></linearGradient><linearGradient id="_Linear6" x1="0" y1="0" x2="1" y2="0" gradientUnits="userSpaceOnUse" gradientTransform="matrix(29.0809,0,0,50.8787,75.068,269.637)"><stop offset="0" style="stop-color:#7fcd91;stop-opacity:1"/><stop offset="0.46" style="stop-color:#e3f4e7;stop-opacity:1"/><stop offset="1" style="stop-color:#fff;stop-opacity:1"/></linearGradient><linearGradient id="_Linear7" x1="0" y1="0" x2="1" y2="0" gradientUnits="userSpaceOnUse" gradientTransform="matrix(29.0809,0,0,50.8787,75.068,269.637)"><stop offset="0" style="stop-color:#7fcd91;stop-opacity:1"/><stop offset="0.46" style="stop-color:#e3f4e7;stop-opacity:1"/><stop offset="1" style="stop-color:#fff;stop-opacity:1"/></linearGradient><linearGradient id="_Linear8" x1="0" y1="0" x2="1" y2="0" gradientUnits="userSpaceOnUse" gradientTransform="matrix(29.0809,0,0,50.8787,75.068,269.637)"><stop offset="0" style="stop-color:#7fcd91;stop-opacity:1"/><stop offset="0.46" style="stop-color:#e3f4e7;stop-opacity:1"/><stop offset="1" style="stop-color:#fff;stop-opacity:1"/></linearGradient><linearGradient id="_Linear9" x1="0" y1="0" x2="1" y2="0" gradientUnits="userSpaceOnUse" gradientTransform="matrix(29.0809,0,0,50.8787,75.068,269.637)"><stop offset="0" style="stop-color:#7fcd91;stop-opacity:1"/><stop offset="0.46" style="stop-color:#e3f4e7;stop-opacity:1"/><stop offset="1" style="stop-color:#fff;stop-opacity:1"/></linearGradient><linearGradient id="_Linear10" x1="0" y1="0" x2="1" y2="0" gradientUnits="userSpaceOnUse" gradientTransform="matrix(29.0809,0,0,50.8787,129.844,78.7374)"><stop offset="0" style="stop-color:#7fcd91;stop-opacity:1"/><stop offset="0.46" style="stop-color:#e3f4e7;stop-opacity:1"/><stop offset="1" style="stop-color:#fff;stop-opacity:1"/></linearGradient><linearGradient id="_Linear11" x1="0" y1="0" x2="1" y2="0" gradientUnits="userSpaceOnUse" gradientTransform="matrix(29.0809,0,0,50.8787,129.844,78.7374)"><stop offset="0" style="stop-color:#7fcd91;stop-opacity:1"/><stop offset="0.46" style="stop-color:#e3f4e7;stop-opacity:1"/><stop offset="1" style="stop-color:#fff;stop-opacity:1"/></linearGradient><linearGradient id="_Linear12" x1="0" y1="0" x2="1" y2="0" gradientUnits="userSpaceOnUse" gradientTransform="matrix(4.02712e-14,-48.3743,11.0554,7.91001e-15,183.855,178.093)"><stop offset="0" style="stop-color:#4d4646;stop-opacity:1"/><stop offset="0.15" style="stop-color:#9e9595;stop-opacity:1"/><stop offset="0.33" style="stop-color:#dfd4d4;stop-opacity:1"/><stop offset="1" style="stop-color:#f5eaea;stop-opacity:1"/></linearGradient><linearGradient id="_Linear13" x1="0" y1="0" x2="1" y2="0" gradientUnits="userSpaceOnUse" gradientTransform="matrix(-27.6689,3.38846e-15,-3.38846e-15,-27.6689,197.121,194.49)"><stop offset="0" style="stop-color:#ffdecf;stop-opacity:1"/><stop offset="0.16" style="stop-color:#fae3dc;stop-opacity:1"/><stop offset="0.35" style="stop-color:#f6e8e6;stop-opacity:1"/><stop offset="1" style="stop-color:#f5eaea;stop-opacity:1"/></linearGradient></defs></svg>