<?xml version="1.0" encoding="UTF-8" standalone="no"?><!DOCTYPE svg PUBLIC "-//W3C//DTD SVG 1.1//EN" "http://www.w3.org/Graphics/SVG/1.1/DTD/svg11.dtd"><svg width="100%" height="100%" viewBox="0 0 369 369" version="1.1" xmlns="http://www.w3.org/2000/svg" xmlns:xlink="http://www.w3.org/1999/xlink" xml:space="preserve" xmlns:serif="http://www.serif.com/" style="fill-rule:evenodd;clip-rule:evenodd;stroke-linecap:round;stroke-linejoin:round;stroke-miterlimit:1.5;"><g id="Calc-icon" serif:id="Calc icon"><g id="Suma-Icon" serif:id="Suma Icon"></g><g id="Multiplicación-Icon" serif:id="Multiplicación Icon"></g><g id="Resta-Icon" serif:id="Resta Icon"></g><g id="Divisón-Icon" serif:id="Divisón Icon"><g id="Suma-Icon1" serif:id="Suma Icon"></g></g></g><g id="Calc-icon1" serif:id="Calc icon"><g id="Suma-Icon2" serif:id="Suma Icon"></g><g id="Multiplicación-Icon1" serif:id="Multiplicación Icon"></g><g id="Resta-Icon1" serif:id="Resta Icon"></g><g id="Divisón-Icon1" serif:id="Divisón Icon"><g id="Suma-Icon3" serif:id="Suma Icon"></g></g></g><g id="_-Paleta-de-Colores" serif:id="´Paleta de Colores"></g><g id="Operadores"><g id="Suma-Icon4" serif:id="Suma Icon"></g><g id="Multiplicación-Icon2" serif:id="Multiplicación Icon"></g><g id="Resta-Icon2" serif:id="Resta Icon"></g><g id="Divisón-Icon2" serif:id="Divisón Icon"><g id="Suma-Icon5" serif:id="Suma Icon"></g></g></g><g id="Resta-Icon3" serif:id="Resta Icon"></g><g id="reptmath_logo"><g id="logo"></g></g><g id="logo_negativo"></g><g id="logo_negativo1" serif:id="logo_negativo"></g><g id="logo_neutral"></g><g id="logo_neutral1" serif:id="logo_neutral"></g><g id="reptmath_icon"></g><g id="Hipotenusa"></g><g id="Ecuaciones"></g><g id="m.c.m"></g><g id="m.c.m1" serif:id="m.c.m"></g><g id="M.C.D"></g><g id="Calculadora"><g id="Operadores1" serif:id="Operadores"><g id="Suma-Icon6" serif:id="Suma Icon"></g><g id="Multiplicación-Icon3" serif:id="Multiplicación Icon"></g><g id="Resta-Icon4" serif:id="Resta Icon"></g><g id="Divisón-Icon3" serif:id="Divisón Icon"><g id="Suma-Icon7" serif:id="Suma Icon"></g></g></g></g><rect id="Ecuación" x="-0" y="0" width="368.4" height="368.4" style="fill:none;"/><clipPath id="_clip1"><rect x="-0" y="0" width="368.4" height="368.4"/></clipPath><g clip-path="url(#_clip1)"><g id="Ecuaciones1" serif:id="Ecuaciones"><path d="M368.4,92.07c-0,-50.837 -41.273,-92.11 -92.11,-92.11l-184.22,-0c-50.837,-0 -92.11,41.273 -92.11,92.11l-0,184.22c-0,50.837 41.273,92.11 92.11,92.11l184.22,-0c50.837,-0 92.11,-41.273 92.11,-92.11l-0,-184.22Z" style="fill:url(#_Linear2);"/><path d="M346.249,102.829c0,-44.724 -36.31,-81.035 -81.034,-81.035l-162.07,0c-44.724,0 -81.035,36.311 -81.035,81.035l0,162.07c0,44.724 36.311,81.034 81.035,81.034l162.07,0c44.724,0 81.034,-36.31 81.034,-81.034l0,-162.07Z" style="fill:none;stroke:url(#_Linear3);stroke-width:2.27px;"/><g transform="matrix(0.352213,0,0,0.352213,-1474.2,249.757)"><path d="M4490.46,-217.935l39.728,-75.091l49.479,0l-62.867,105.069l66.505,106.816l-51.37,-0l-40.893,-76.401l-40.893,76.401l-49.624,-0l64.468,-106.816l-62.867,-105.069l49.188,0l39.146,75.091Z" style="fill:url(#_Linear4);fill-rule:nonzero;"/><path d="M4802.9,-202.364l-121.368,0l-0,-15.425l121.368,-0l-0,15.425Zm-0,59.811l-121.368,0l-0,-15.425l121.368,-0l-0,15.425Z" style="fill:url(#_Linear5);fill-rule:nonzero;"/><path d="M5011.44,-81.141l-42.493,-0l0,-174.339l-43.075,-0l-0,-29.979l85.568,-7.567l0,211.885Z" style="fill:url(#_Linear6);fill-rule:nonzero;"/></g></g></g><defs><linearGradient id="_Linear2" x1="0" y1="0" x2="1" y2="0" gradientUnits="userSpaceOnUse" gradientTransform="matrix(368.44,-2.41311e-14,0,368.44,-0.0403003,184.18)"><stop offset="0" style="stop-color:#5b5656;stop-opacity:1"/><stop offset="1" style="stop-color:#5e6f64;stop-opacity:1"/></linearGradient><linearGradient id="_Linear3" x1="0" y1="0" x2="1" y2="0" gradientUnits="userSpaceOnUse" gradientTransform="matrix(324.139,-2.12296e-14,0,324.139,22.1103,183.864)"><stop offset="0" style="stop-color:#7fcd91;stop-opacity:1"/><stop offset="0.15" style="stop-color:#b8dbbc;stop-opacity:1"/><stop offset="0.33" style="stop-color:#e5e6de;stop-opacity:1"/><stop offset="1" style="stop-color:#f5eaea;stop-opacity:1"/></linearGradient><linearGradient id="_Linear4" x1="0" y1="0" x2="1" y2="0" gradientUnits="userSpaceOnUse" gradientTransform="matrix(129.758,0,0,227.019,4409.4,-194.651)"><stop offset="0" style="stop-color:#7fcd91;stop-opacity:1"/><stop offset="0.46" style="stop-color:#e3f4e7;stop-opacity:1"/><stop offset="1" style="stop-color:#fff;stop-opacity:1"/></linearGradient><linearGradient id="_Linear5" x1="0" y1="0" x2="1" y2="0" gradientUnits="userSpaceOnUse" gradientTransform="matrix(129.758,0,0,227.019,4409.4,-194.651)"><stop offset="0" style="stop-color:#7fcd91;stop-opacity:1"/><stop offset="0.46" style="stop-color:#e3f4e7;stop-opacity:1"/><stop offset="1" style="stop-color:#fff;stop-opacity:1"/></linearGradient><linearGradient id="_Linear6" x1="0" y1="0" x2="1" y2="0" gradientUnits="userSpaceOnUse" gradientTransform="matrix(129.758,0,0,227.019,4409.4,-194.651)"><stop offset="0" style="stop-color:#7fcd91;stop-opacity:1"/><stop offset="0.46" style="stop-color:#e3f4e7;stop-opacity:1"/><stop offset="1" style="stop-color:#fff;stop-opacity:1"/></linearGradient></defs></svg>