<?xml version="1.0" encoding="UTF-8" standalone="no"?><!DOCTYPE svg PUBLIC "-//W3C//DTD SVG 1.1//EN" "http://www.w3.org/Graphics/SVG/1.1/DTD/svg11.dtd"><svg width="100%" height="100%" viewBox="0 0 366 366" version="1.1" xmlns="http://www.w3.org/2000/svg" xmlns:xlink="http://www.w3.org/1999/xlink" xml:space="preserve" xmlns:serif="http://www.serif.com/" style="fill-rule:evenodd;clip-rule:evenodd;stroke-linejoin:round;stroke-miterlimit:2;"><g id="Calc-icon" serif:id="Calc icon"><g id="Suma-Icon" serif:id="Suma Icon"></g><g id="Multiplicación-Icon" serif:id="Multiplicación Icon"></g><g id="Resta-Icon" serif:id="Resta Icon"></g><g id="Divisón-Icon" serif:id="Divisón Icon"><g id="Suma-Icon1" serif:id="Suma Icon"></g></g></g><g id="Calc-icon1" serif:id="Calc icon"><g id="Suma-Icon2" serif:id="Suma Icon"></g><g id="Multiplicación-Icon1" serif:id="Multiplicación Icon"></g><g id="Resta-Icon1" serif:id="Resta Icon"></g><g id="Divisón-Icon1" serif:id="Divisón Icon"><g id="Suma-Icon3" serif:id="Suma Icon"></g></g></g><g id="_-Paleta-de-Colores" serif:id="´Paleta de Colores"></g><g id="Operadores"><g id="Suma-Icon4" serif:id="Suma Icon"></g><g id="Multiplicación-Icon2" serif:id="Multiplicación Icon"></g><g id="Resta-Icon2" serif:id="Resta Icon"></g><g id="Divisón-Icon2" serif:id="Divisón Icon"><g id="Suma-Icon5" serif:id="Suma Icon"></g></g></g><g id="Resta-Icon3" serif:id="Resta Icon"></g><g id="reptmath_logo"><g id="logo"></g></g><g id="logo_negativo"></g><g id="logo_negativo1" serif:id="logo_negativo"></g><g id="logo_neutral"></g><g id="logo_neutral1" serif:id="logo_neutral"></g><g id="reptmath_icon"></g><rect id="reptmath_icon1" serif:id="reptmath_icon" x="0" y="0" width="365.7" height="365.692" style="fill:none;"/><clipPath id="_clip1"><rect x="0" y="0" width="365.7" height="365.692"/></clipPath><g clip-path="url(#_clip1)"><g id="reptmath_icon2" serif:id="reptmath_icon"><path d="M365.7,69.365c-0,-37.893 -30.764,-68.657 -68.657,-68.657l-228.386,-0c-37.893,-0 -68.657,30.764 -68.657,68.657l-0,228.377c-0,37.893 30.764,68.658 68.657,68.658l228.386,-0c37.893,-0 68.657,-30.765 68.657,-68.658l-0,-228.377Z" style="fill:url(#_Linear2);"/><path d="M68.126,55.547l78.681,0c12.518,0 22.204,2.832 29.059,8.494c6.855,5.663 11.474,13.611 13.858,23.843c2.385,10.233 3.577,23.297 3.577,39.192c-0,14.504 -1.888,25.83 -5.663,33.976c-3.775,8.146 -10.332,13.809 -19.67,16.988c7.749,1.589 13.362,5.464 16.839,11.623c3.477,6.16 5.215,14.505 5.215,25.035l-0.596,96.862l-50.07,-0l0,-100.14c0,-7.153 -1.391,-11.723 -4.172,-13.71c-2.782,-1.987 -7.848,-2.98 -15.2,-2.98l-0,116.83l-51.858,-0l-0,-256.013Zm64.375,94.776c7.153,-0 10.73,-7.749 10.73,-23.247c-0,-6.756 -0.298,-11.822 -0.894,-15.2c-0.596,-3.378 -1.689,-5.712 -3.279,-7.004c-1.589,-1.291 -3.874,-1.937 -6.855,-1.937l-11.921,-0l0,47.388l12.219,-0Z" style="fill:#fff;fill-rule:nonzero;"/><path d="M244.598,230.643l0,-30.399l-30.101,-0l-0,-33.678l30.101,-0l0,-30.102l33.678,-0l0,30.102l30.4,-0l0,33.678l-30.4,-0l0,30.399l-33.678,0Z" style="fill:#fff;fill-rule:nonzero;"/></g></g><g id="Hipotenusa"></g><g id="Ecuaciones"></g><g id="m.c.m"></g><g id="m.c.m1" serif:id="m.c.m"></g><g id="M.C.D"></g><g id="Calculadora"><g id="Operadores1" serif:id="Operadores"><g id="Suma-Icon6" serif:id="Suma Icon"></g><g id="Multiplicación-Icon3" serif:id="Multiplicación Icon"></g><g id="Resta-Icon4" serif:id="Resta Icon"></g><g id="Divisón-Icon3" serif:id="Divisón Icon"><g id="Suma-Icon7" serif:id="Suma Icon"></g></g></g></g><defs><linearGradient id="_Linear2" x1="0" y1="0" x2="1" y2="0" gradientUnits="userSpaceOnUse" gradientTransform="matrix(365.7,0,0,365.692,0,183.554)"><stop offset="0" style="stop-color:#5e6f64;stop-opacity:1"/><stop offset="1" style="stop-color:#7fcd91;stop-opacity:1"/></linearGradient></defs></svg>