<?xml version="1.0" encoding="UTF-8" standalone="no"?><!DOCTYPE svg PUBLIC "-//W3C//DTD SVG 1.1//EN" "http://www.w3.org/Graphics/SVG/1.1/DTD/svg11.dtd"><svg width="100%" height="100%" viewBox="0 0 1514 366" version="1.1" xmlns="http://www.w3.org/2000/svg" xmlns:xlink="http://www.w3.org/1999/xlink" xml:space="preserve" xmlns:serif="http://www.serif.com/" style="fill-rule:evenodd;clip-rule:evenodd;stroke-linecap:round;stroke-linejoin:round;stroke-miterlimit:1.5;"><g id="Calc-icon" serif:id="Calc icon"><g id="Suma-Icon" serif:id="Suma Icon"></g><g id="Multiplicación-Icon" serif:id="Multiplicación Icon"></g><g id="Resta-Icon" serif:id="Resta Icon"></g><g id="Divisón-Icon" serif:id="Divisón Icon"><g id="Suma-Icon1" serif:id="Suma Icon"></g></g></g><g id="Calc-icon1" serif:id="Calc icon"><g id="Suma-Icon2" serif:id="Suma Icon"></g><g id="Multiplicación-Icon1" serif:id="Multiplicación Icon"></g><g id="Resta-Icon1" serif:id="Resta Icon"></g><g id="Divisón-Icon1" serif:id="Divisón Icon"><g id="Suma-Icon3" serif:id="Suma Icon"></g></g></g><g id="_-Paleta-de-Colores" serif:id="´Paleta de Colores"></g><g id="Operadores"><g id="Suma-Icon4" serif:id="Suma Icon"></g><g id="Multiplicación-Icon2" serif:id="Multiplicación Icon"></g><g id="Resta-Icon2" serif:id="Resta Icon"></g><g id="Divisón-Icon2" serif:id="Divisón Icon"><g id="Suma-Icon5" serif:id="Suma Icon"></g></g></g><g id="Resta-Icon3" serif:id="Resta Icon"></g><g id="reptmath_logo"><g id="logo"></g></g><g id="logo_dark"></g><g id="logo-light" serif:id="logo light"></g><g id="reptmath_icon"></g><g id="Hipotenusa"></g><g id="Ecuaciones"></g><g id="m.c.m"></g><g id="m.c.m1" serif:id="m.c.m"></g><g id="M.C.D"></g><g id="Calculadora"><g id="Operadores1" serif:id="Operadores"><g id="Suma-Icon6" serif:id="Suma Icon"></g><g id="Multiplicación-Icon3" serif:id="Multiplicación Icon"></g><g id="Resta-Icon4" serif:id="Resta Icon"></g><g id="Divisón-Icon3" serif:id="Divisón Icon"><g id="Suma-Icon7" serif:id="Suma Icon"></g></g></g></g><rect id="logo_light" x="-0" y="0" width="1513.53" height="365.692" style="fill:none;"/><clipPath id="_clip1"><rect x="-0" y="0" width="1513.53" height="365.692"/></clipPath><g clip-path="url(#_clip1)"><g id="logo1" serif:id="logo"><g transform="matrix(5.96072,0,0,5.96072,-6750.3,-7906.13)"><text x="1142.69px" y="1375.45px" style="font-family:'Anton-Regular', 'Anton';font-size:50px;fill:none;">Rept</text><text x="1242.89px" y="1375.45px" style="font-family:'Roboto-Thin', 'Roboto';font-weight:250;font-size:50px;fill:#fff;">M<tspan x="1286.2px 1312.91px " y="1375.45px 1375.45px ">AT</tspan>H</text></g><path d="M641.786,69.437c0,-37.893 -30.764,-68.657 -68.657,-68.657l-503.73,0c-37.893,0 -68.657,30.764 -68.657,68.657l-0,228.378c-0,37.893 30.764,68.657 68.657,68.657l503.73,0c37.893,0 68.657,-30.764 68.657,-68.657l0,-228.378Zm-282.804,4.959l53.05,-0l0,11.623c7.551,-9.338 17.982,-14.008 31.294,-14.008c16.889,0 28.661,5.663 35.317,16.988c6.657,11.326 9.985,27.022 9.985,47.09l-0,80.768c-0,17.087 -0.994,31.045 -2.981,41.874c-1.987,10.828 -6.358,19.571 -13.113,26.227c-6.756,6.656 -16.988,9.984 -30.698,9.984c-13.114,0 -23.048,-3.676 -29.804,-11.027l0,52.156l-53.05,0l0,-261.675Zm194.021,220.546c-13.709,0 -23.147,-2.881 -28.313,-8.643c-5.166,-5.762 -7.749,-15.001 -7.749,-27.717l0,-136.203l-14.604,0l0,-39.638l14.604,-0l0,-46.196l50.666,0l0,46.196l14.902,-0l-0,39.638l-14.902,0l0,122.493c0,3.775 0.298,6.557 0.894,8.345c0.596,1.788 2.186,2.682 4.769,2.682c1.987,0 3.874,-0.099 5.662,-0.298c1.789,-0.198 2.981,-0.298 3.577,-0.298l-0,35.765c-2.98,0.794 -7.302,1.639 -12.965,2.533c-5.662,0.894 -11.176,1.341 -16.541,1.341Zm-278.365,0c-22.452,0 -38.546,-6.159 -48.282,-18.478c-9.736,-12.319 -14.604,-30.698 -14.604,-55.137l0,-87.622c0,-20.068 5.762,-35.367 17.286,-45.898c11.525,-10.53 27.618,-15.796 48.282,-15.796c41.924,0 62.886,20.565 62.886,61.694l-0,15.796c-0,15.895 -0.199,28.81 -0.596,38.744l-75.701,0l-0,42.321c-0,7.551 0.794,13.462 2.384,17.733c1.589,4.272 4.967,6.408 10.133,6.408c3.974,0 6.805,-1.192 8.494,-3.576c1.689,-2.384 2.682,-5.116 2.981,-8.196c0.298,-3.08 0.447,-7.6 0.447,-13.561l-0,-21.16l51.858,-0l-0,12.517c-0,25.433 -4.918,44.159 -14.753,56.18c-9.835,12.021 -26.774,18.031 -50.815,18.031Zm-202.366,-258.397l78.681,0c12.518,0 22.204,2.831 29.059,8.494c6.854,5.663 11.474,13.61 13.858,23.843c2.385,10.232 3.577,23.296 3.577,39.192c-0,14.504 -1.888,25.829 -5.663,33.976c-3.775,8.146 -10.332,13.809 -19.67,16.988c7.749,1.589 13.362,5.464 16.839,11.623c3.477,6.16 5.215,14.505 5.215,25.035l-0.596,96.862l-50.07,-0l0,-100.14c0,-7.153 -1.391,-11.723 -4.172,-13.71c-2.782,-1.987 -7.849,-2.98 -15.2,-2.98l-0,116.83l-51.858,-0l-0,-256.013Zm352.278,217.864c4.769,0 7.848,-2.185 9.239,-6.557c1.391,-4.371 2.086,-10.729 2.086,-19.074l0,-92.689c0,-7.55 -0.695,-13.312 -2.086,-17.286c-1.391,-3.974 -4.57,-5.961 -9.537,-5.961c-8.146,0 -12.22,7.55 -12.22,22.651l0,95.669c0,7.352 0.845,13.064 2.534,17.137c1.689,4.074 5.017,6.11 9.984,6.11Zm-136.202,-92.093l-0,-28.015c-0,-15.697 -3.875,-23.545 -11.624,-23.545c-8.742,-0 -13.113,7.848 -13.113,23.545l-0,28.015l24.737,0Zm-151.701,-30.996c7.153,0 10.73,-7.749 10.73,-23.246c-0,-6.756 -0.298,-11.822 -0.894,-15.2c-0.597,-3.378 -1.689,-5.713 -3.279,-7.004c-1.589,-1.292 -3.874,-1.937 -6.855,-1.937l-11.921,-0l-0,47.387l12.219,0Z" style="fill:#fff;"/><path d="M615.454,31.181l815.417,0c42.069,0 76.223,34.154 76.223,76.223l-0,152.445c-0,42.068 -34.154,76.222 -76.223,76.222l-815.417,0l-0,-304.89Z" style="fill:none;stroke:#fff;stroke-width:7.92px;"/></g></g></svg>