<?xml version="1.0" encoding="UTF-8" standalone="no"?><!DOCTYPE svg PUBLIC "-//W3C//DTD SVG 1.1//EN" "http://www.w3.org/Graphics/SVG/1.1/DTD/svg11.dtd"><svg width="100%" height="100%" viewBox="0 0 369 369" version="1.1" xmlns="http://www.w3.org/2000/svg" xmlns:xlink="http://www.w3.org/1999/xlink" xml:space="preserve" xmlns:serif="http://www.serif.com/" style="fill-rule:evenodd;clip-rule:evenodd;stroke-linecap:round;stroke-linejoin:round;stroke-miterlimit:1.5;"><g id="Calc-icon" serif:id="Calc icon"><g id="Suma-Icon" serif:id="Suma Icon"></g><g id="Multiplicación-Icon" serif:id="Multiplicación Icon"></g><g id="Resta-Icon" serif:id="Resta Icon"></g><g id="Divisón-Icon" serif:id="Divisón Icon"><g id="Suma-Icon1" serif:id="Suma Icon"></g></g></g><g id="Calc-icon1" serif:id="Calc icon"><g id="Suma-Icon2" serif:id="Suma Icon"></g><g id="Multiplicación-Icon1" serif:id="Multiplicación Icon"></g><g id="Resta-Icon1" serif:id="Resta Icon"></g><g id="Divisón-Icon1" serif:id="Divisón Icon"><g id="Suma-Icon3" serif:id="Suma Icon"></g></g></g><g id="_-Paleta-de-Colores" serif:id="´Paleta de Colores"></g><g id="Operadores"><g id="Suma-Icon4" serif:id="Suma Icon"></g><g id="Multiplicación-Icon2" serif:id="Multiplicación Icon"></g><g id="Resta-Icon2" serif:id="Resta Icon"></g><g id="Divisón-Icon2" serif:id="Divisón Icon"><g id="Suma-Icon5" serif:id="Suma Icon"></g></g></g><g id="Resta-Icon3" serif:id="Resta Icon"></g><g id="reptmath_logo"><g id="logo"></g></g><g id="logo_negativo"></g><g id="logo_negativo1" serif:id="logo_negativo"></g><g id="logo_neutral"></g><g id="logo_neutral1" serif:id="logo_neutral"></g><g id="reptmath_icon"></g><g id="Hipotenusa"></g><g id="Ecuaciones"></g><g id="m.c.m"></g><g id="m.c.m1" serif:id="m.c.m"></g><g id="M.C.D"></g><g id="Calculadora"><g id="Operadores1" serif:id="Operadores"><g id="Suma-Icon6" serif:id="Suma Icon"></g><g id="Multiplicación-Icon3" serif:id="Multiplicación Icon"></g><g id="Resta-Icon4" serif:id="Resta Icon"></g><g id="Divisón-Icon3" serif:id="Divisón Icon"><g id="Suma-Icon7" serif:id="Suma Icon"></g></g></g></g><rect id="m.c.m2" serif:id="m.c.m" x="0" y="0" width="368.4" height="368.4" style="fill:none;"/><clipPath id="_clip1"><rect x="0" y="0" width="368.4" height="368.4"/></clipPath><g clip-path="url(#_clip1)"><g id="m.c.m3" serif:id="m.c.m"><path d="M368.4,92.11c-0,-50.837 -41.273,-92.11 -92.11,-92.11l-184.22,-0c-50.837,-0 -92.11,41.273 -92.11,92.11l-0,184.22c-0,50.837 41.273,92.11 92.11,92.11l184.22,0c50.837,0 92.11,-41.273 92.11,-92.11l-0,-184.22Z" style="fill:url(#_Linear2);"/><path d="M346.249,102.869c0,-44.724 -36.31,-81.034 -81.034,-81.034l-162.07,-0c-44.724,-0 -81.035,36.31 -81.035,81.034l0,162.07c0,44.724 36.311,81.035 81.035,81.035l162.07,-0c44.724,-0 81.034,-36.311 81.034,-81.035l0,-162.07Z" style="fill:none;stroke:url(#_Linear3);stroke-width:2.27px;"/><g transform="matrix(0.435805,0,0,0.435805,-1837.98,169.475)"><path d="M4487.42,-81.141l-79.371,-0l-0,-8.165l41.881,-47.413c7.726,-8.721 13.184,-16.023 16.374,-21.906c3.19,-5.883 4.785,-11.516 4.785,-16.902c0,-7.96 -2.238,-14.34 -6.716,-19.14c-4.478,-4.8 -10.814,-7.2 -19.009,-7.2c-9.717,0 -17.092,2.693 -22.126,8.078c-5.034,5.385 -7.551,12.585 -7.551,21.599l-9.746,-0l-0.175,-0.527c-0.293,-10.653 3.161,-19.667 10.36,-27.042c7.2,-7.376 16.946,-11.063 29.238,-11.063c11.004,-0 19.814,3.161 26.428,9.482c6.614,6.322 9.921,14.809 9.921,25.462c0,7.024 -2.209,14.151 -6.629,21.38c-4.419,7.229 -10.58,15.292 -18.482,24.189l-35.208,39.775l0.176,0.437l65.85,0l0,8.956Z" style="fill:url(#_Linear4);fill-rule:nonzero;"/><path d="M4615.87,-122.319l20.019,-0l-0,8.955l-20.019,0l0,32.223l-10.448,-0l0,-32.223l-59.968,0l0,-6.029l58.915,-89.585l11.501,-0l0,86.659Zm-57.948,-0l47.5,-0l0,-72.875l-0.527,-0.175l-4.477,9.57l-42.496,63.48Z" style="fill:url(#_Linear5);fill-rule:nonzero;"/><path d="M4869.35,-81.141l-87.273,-0l-0,-16.77l41.354,-44.339c5.97,-6.849 10.214,-12.629 12.731,-17.341c2.517,-4.712 3.775,-9.087 3.775,-13.126c0,-5.385 -1.449,-9.79 -4.346,-13.214c-2.897,-3.424 -7.009,-5.136 -12.336,-5.136c-5.912,-0 -10.404,2.005 -13.477,6.014c-3.073,4.01 -4.61,9.351 -4.61,16.024l-24.935,-0l-0.176,-0.527c-0.292,-11.531 3.498,-21.292 11.37,-29.282c7.873,-7.989 18.482,-11.984 31.828,-11.984c13.17,-0 23.516,3.424 31.038,10.272c7.521,6.849 11.282,15.98 11.282,27.394c-0,7.727 -2.122,14.853 -6.366,21.38c-4.243,6.526 -11.253,15.087 -21.028,25.681l-22.74,24.761l0.175,0.438l53.734,-0l0,19.755Z" style="fill:url(#_Linear6);fill-rule:nonzero;"/><path d="M4455.55,99.289l-10.536,-0l-0,-117.477l-32.486,3.775l-0,-7.375l43.022,-7.726l-0,128.803Z" style="fill:url(#_Linear7);fill-rule:nonzero;"/><path d="M4630.79,98.674l-79.371,0l-0,-8.165l41.881,-47.412c7.726,-8.722 13.184,-16.024 16.374,-21.907c3.191,-5.882 4.786,-11.516 4.786,-16.901c-0,-7.961 -2.239,-14.341 -6.717,-19.141c-4.478,-4.799 -10.814,-7.199 -19.009,-7.199c-9.717,-0 -17.092,2.692 -22.126,8.077c-5.034,5.385 -7.551,12.585 -7.551,21.599l-9.745,0l-0.176,-0.527c-0.293,-10.653 3.161,-19.667 10.36,-27.042c7.2,-7.375 16.946,-11.063 29.238,-11.063c11.004,0 19.814,3.161 26.428,9.482c6.614,6.322 9.921,14.809 9.921,25.463c0,7.024 -2.209,14.15 -6.629,21.379c-4.419,7.229 -10.579,15.292 -18.481,24.189l-35.208,39.775l0.175,0.438l65.85,-0l0,8.955Z" style="fill:url(#_Linear8);fill-rule:nonzero;"/><path d="M4869.35,98.674l-87.273,0l-0,-16.77l41.354,-44.339c5.97,-6.848 10.214,-12.628 12.731,-17.34c2.517,-4.712 3.775,-9.088 3.775,-13.127c0,-5.385 -1.449,-9.789 -4.346,-13.214c-2.897,-3.424 -7.009,-5.136 -12.336,-5.136c-5.912,0 -10.404,2.005 -13.477,6.014c-3.073,4.01 -4.61,9.351 -4.61,16.024l-24.935,0l-0.176,-0.527c-0.292,-11.531 3.498,-21.291 11.37,-29.281c7.873,-7.99 18.482,-11.985 31.828,-11.985c13.17,0 23.516,3.424 31.038,10.273c7.521,6.848 11.282,15.979 11.282,27.393c-0,7.727 -2.122,14.853 -6.366,21.38c-4.243,6.526 -11.253,15.087 -21.028,25.681l-22.74,24.762l0.175,0.437l53.734,0l0,19.755Z" style="fill:url(#_Linear9);fill-rule:nonzero;"/><path d="M4455.55,279.104l-10.536,0l-0,-117.477l-32.486,3.776l-0,-7.376l43.022,-7.726l-0,128.803Z" style="fill:url(#_Linear10);fill-rule:nonzero;"/><path d="M4598.92,279.104l-10.536,0l-0,-117.477l-32.486,3.776l-0,-7.376l43.022,-7.726l-0,128.803Z" style="fill:url(#_Linear11);fill-rule:nonzero;"/></g><path d="M213.766,77.598l0,213.512" style="fill:none;stroke:#f5eaea;stroke-width:5.77px;"/></g></g><defs><linearGradient id="_Linear2" x1="0" y1="0" x2="1" y2="0" gradientUnits="userSpaceOnUse" gradientTransform="matrix(368.44,-2.41311e-14,0,368.44,-0.0403003,184.22)"><stop offset="0" style="stop-color:#5b5656;stop-opacity:1"/><stop offset="1" style="stop-color:#5e6f64;stop-opacity:1"/></linearGradient><linearGradient id="_Linear3" x1="0" y1="0" x2="1" y2="0" gradientUnits="userSpaceOnUse" gradientTransform="matrix(324.139,-2.12296e-14,0,324.139,22.1103,183.904)"><stop offset="0" style="stop-color:#7fcd91;stop-opacity:1"/><stop offset="0.15" style="stop-color:#b8dbbc;stop-opacity:1"/><stop offset="0.33" style="stop-color:#e5e6de;stop-opacity:1"/><stop offset="1" style="stop-color:#f5eaea;stop-opacity:1"/></linearGradient><linearGradient id="_Linear4" x1="0" y1="0" x2="1" y2="0" gradientUnits="userSpaceOnUse" gradientTransform="matrix(129.758,0,0,227.019,4409.4,-194.651)"><stop offset="0" style="stop-color:#7fcd91;stop-opacity:1"/><stop offset="0.46" style="stop-color:#e3f4e7;stop-opacity:1"/><stop offset="1" style="stop-color:#fff;stop-opacity:1"/></linearGradient><linearGradient id="_Linear5" x1="0" y1="0" x2="1" y2="0" gradientUnits="userSpaceOnUse" gradientTransform="matrix(129.758,0,0,227.019,4409.4,-194.651)"><stop offset="0" style="stop-color:#7fcd91;stop-opacity:1"/><stop offset="0.46" style="stop-color:#e3f4e7;stop-opacity:1"/><stop offset="1" style="stop-color:#fff;stop-opacity:1"/></linearGradient><linearGradient id="_Linear6" x1="0" y1="0" x2="1" y2="0" gradientUnits="userSpaceOnUse" gradientTransform="matrix(129.758,0,0,227.019,4409.4,-194.651)"><stop offset="0" style="stop-color:#7fcd91;stop-opacity:1"/><stop offset="0.46" style="stop-color:#e3f4e7;stop-opacity:1"/><stop offset="1" style="stop-color:#fff;stop-opacity:1"/></linearGradient><linearGradient id="_Linear7" x1="0" y1="0" x2="1" y2="0" gradientUnits="userSpaceOnUse" gradientTransform="matrix(129.758,0,0,227.019,4409.4,-194.651)"><stop offset="0" style="stop-color:#7fcd91;stop-opacity:1"/><stop offset="0.46" style="stop-color:#e3f4e7;stop-opacity:1"/><stop offset="1" style="stop-color:#fff;stop-opacity:1"/></linearGradient><linearGradient id="_Linear8" x1="0" y1="0" x2="1" y2="0" gradientUnits="userSpaceOnUse" gradientTransform="matrix(129.758,0,0,227.019,4409.4,-194.651)"><stop offset="0" style="stop-color:#7fcd91;stop-opacity:1"/><stop offset="0.46" style="stop-color:#e3f4e7;stop-opacity:1"/><stop offset="1" style="stop-color:#fff;stop-opacity:1"/></linearGradient><linearGradient id="_Linear9" x1="0" y1="0" x2="1" y2="0" gradientUnits="userSpaceOnUse" gradientTransform="matrix(129.758,0,0,227.019,4409.4,-194.651)"><stop offset="0" style="stop-color:#7fcd91;stop-opacity:1"/><stop offset="0.46" style="stop-color:#e3f4e7;stop-opacity:1"/><stop offset="1" style="stop-color:#fff;stop-opacity:1"/></linearGradient><linearGradient id="_Linear10" x1="0" y1="0" x2="1" y2="0" gradientUnits="userSpaceOnUse" gradientTransform="matrix(129.758,0,0,227.019,4409.4,-194.651)"><stop offset="0" style="stop-color:#7fcd91;stop-opacity:1"/><stop offset="0.46" style="stop-color:#e3f4e7;stop-opacity:1"/><stop offset="1" style="stop-color:#fff;stop-opacity:1"/></linearGradient><linearGradient id="_Linear11" x1="0" y1="0" x2="1" y2="0" gradientUnits="userSpaceOnUse" gradientTransform="matrix(129.758,0,0,227.019,4409.4,-194.651)"><stop offset="0" style="stop-color:#7fcd91;stop-opacity:1"/><stop offset="0.46" style="stop-color:#e3f4e7;stop-opacity:1"/><stop offset="1" style="stop-color:#fff;stop-opacity:1"/></linearGradient></defs></svg>