<?xml version="1.0" encoding="UTF-8" standalone="no"?><!DOCTYPE svg PUBLIC "-//W3C//DTD SVG 1.1//EN" "http://www.w3.org/Graphics/SVG/1.1/DTD/svg11.dtd"><svg width="100%" height="100%" viewBox="0 0 347 347" version="1.1" xmlns="http://www.w3.org/2000/svg" xmlns:xlink="http://www.w3.org/1999/xlink" xml:space="preserve" xmlns:serif="http://www.serif.com/" style="fill-rule:evenodd;clip-rule:evenodd;stroke-linejoin:round;stroke-miterlimit:2;"><g id="Calc-icon" serif:id="Calc icon"><g id="Suma-Icon" serif:id="Suma Icon"></g><g id="Multiplicación-Icon" serif:id="Multiplicación Icon"></g><g id="Resta-Icon" serif:id="Resta Icon"></g><g id="Divisón-Icon" serif:id="Divisón Icon"><g id="Suma-Icon1" serif:id="Suma Icon"></g></g></g><g id="Calc-icon1" serif:id="Calc icon"><g id="Suma-Icon2" serif:id="Suma Icon"></g><g id="Multiplicación-Icon1" serif:id="Multiplicación Icon"></g><g id="Resta-Icon1" serif:id="Resta Icon"></g><g id="Divisón-Icon1" serif:id="Divisón Icon"><g id="Suma-Icon3" serif:id="Suma Icon"></g></g></g><g id="_-Paleta-de-Colores" serif:id="´Paleta de Colores"></g><g id="Operadores"><g id="Suma-Icon4" serif:id="Suma Icon"></g><g id="Multiplicación-Icon2" serif:id="Multiplicación Icon"></g><g id="Resta-Icon2" serif:id="Resta Icon"></g><g id="Divisón-Icon2" serif:id="Divisón Icon"><g id="Suma-Icon5" serif:id="Suma Icon"></g></g></g><g id="Resta-Icon3" serif:id="Resta Icon"></g><g id="reptmath_logo"><g id="logo"></g></g><g id="logo_negativo"></g><g id="logo_negativo1" serif:id="logo_negativo"></g><g id="logo_neutral"></g><g id="logo_neutral1" serif:id="logo_neutral"></g><g id="reptmath_icon"></g><g id="Hipotenusa"></g><g id="Ecuaciones"></g><g id="m.c.m"></g><g id="m.c.m1" serif:id="m.c.m"></g><g id="M.C.D"></g><g id="Calculadora"><g id="Operadores1" serif:id="Operadores"><g id="Suma-Icon6" serif:id="Suma Icon"></g><g id="Multiplicación-Icon3" serif:id="Multiplicación Icon"></g><g id="Resta-Icon4" serif:id="Resta Icon"></g><g id="Divisón-Icon3" serif:id="Divisón Icon"><g id="Suma-Icon7" serif:id="Suma Icon"></g></g></g></g><rect id="GitHub-Icon" serif:id="GitHub Icon" x="0" y="0" width="346.284" height="346.284" style="fill:none;"/><clipPath id="_clip1"><rect x="0" y="0" width="346.284" height="346.284"/></clipPath><g clip-path="url(#_clip1)"><g><path d="M323.879,90.876c-15.483,-26.528 -36.484,-47.53 -63.01,-63.011c-26.529,-15.482 -55.492,-23.221 -86.907,-23.221c-31.412,0 -60.384,7.742 -86.907,23.221c-26.528,15.48 -47.529,36.483 -63.012,63.011c-15.48,26.527 -23.221,55.495 -23.221,86.903c0,37.727 11.008,71.653 33.028,101.786c22.017,30.135 50.461,50.987 85.328,62.558c4.058,0.754 7.063,0.224 9.016,-1.576c1.955,-1.802 2.93,-4.058 2.93,-6.76c0,-0.451 -0.038,-4.507 -0.113,-12.174c-0.078,-7.666 -0.114,-14.354 -0.114,-20.061l-5.185,0.897c-3.306,0.606 -7.477,0.863 -12.513,0.79c-5.033,-0.07 -10.257,-0.598 -15.667,-1.579c-5.412,-0.972 -10.446,-3.226 -15.105,-6.758c-4.658,-3.532 -7.964,-8.155 -9.918,-13.862l-2.254,-5.188c-1.503,-3.454 -3.869,-7.291 -7.1,-11.496c-3.232,-4.209 -6.501,-7.063 -9.807,-8.566l-1.578,-1.13c-1.052,-0.751 -2.028,-1.656 -2.93,-2.707c-0.902,-1.051 -1.577,-2.103 -2.028,-3.156c-0.452,-1.055 -0.077,-1.919 1.127,-2.597c1.204,-0.679 3.38,-1.008 6.538,-1.008l4.507,0.674c3.006,0.602 6.724,2.402 11.159,5.409c4.433,3.005 8.077,6.912 10.933,11.72c3.459,6.163 7.626,10.86 12.513,14.092c4.883,3.232 9.806,4.845 14.765,4.845c4.958,-0 9.241,-0.376 12.85,-1.124c3.604,-0.751 6.986,-1.881 10.144,-3.383c1.353,-10.074 5.035,-17.813 11.045,-23.223c-8.566,-0.9 -16.267,-2.256 -23.107,-4.058c-6.837,-1.805 -13.901,-4.735 -21.189,-8.797c-7.293,-4.056 -13.342,-9.093 -18.15,-15.102c-4.809,-6.012 -8.755,-13.905 -11.834,-23.672c-3.08,-9.77 -4.621,-21.041 -4.621,-33.816c0,-18.188 5.938,-33.666 17.812,-46.442c-5.562,-13.675 -5.037,-29.004 1.577,-45.987c4.358,-1.355 10.822,-0.338 19.388,3.042c8.567,3.382 14.84,6.279 18.824,8.681c3.985,2.401 7.177,4.436 9.582,6.086c13.98,-3.906 28.407,-5.859 43.285,-5.859c14.878,-0 29.308,1.953 43.289,5.859l8.567,-5.408c5.858,-3.608 12.776,-6.915 20.737,-9.921c7.965,-3.005 14.056,-3.832 18.266,-2.478c6.761,16.984 7.364,32.313 1.8,45.987c11.873,12.776 17.813,28.258 17.813,46.443c-0,12.774 -1.546,24.081 -4.622,33.926c-3.079,9.848 -7.06,17.733 -11.943,23.672c-4.888,5.939 -10.976,10.936 -18.264,14.992c-7.29,4.058 -14.357,6.988 -21.193,8.793c-6.84,1.805 -14.541,3.162 -23.107,4.063c7.813,6.761 11.72,17.433 11.72,32.01l-0,47.564c-0,2.702 0.939,4.958 2.82,6.761c1.879,1.8 4.845,2.329 8.904,1.575c34.871,-11.57 63.315,-32.423 85.332,-62.558c22.014,-30.132 33.025,-64.058 33.025,-101.786c-0.008,-31.403 -7.752,-60.369 -23.225,-86.896Z" style="fill:#fff;fill-rule:nonzero;"/></g></g></svg>