<svg version="1.1" xmlns="http://www.w3.org/2000/svg" xmlns:xlink="http://www.w3.org/1999/xlink" x="0px" y="0px"
	 width="985.78px" height="1091px" viewBox="0 0 985.78 1091" style="enable-background:new 0 0 985.78 1091;" xml:space="preserve"
	>
<style type="text/css">
	.st0{fill:#FFFFFF;}
</style>
<defs>
</defs>
<path class="st0" d="M492.76,0C220.61,0,0,220.61,0,492.76c0,67.42,13.55,131.67,38.06,190.19c3.89,8.88,51.62,113.82,129.31,107.14
	h196.66c47,0,85.46-38.46,85.46-85.46v-51.34h88.58v51.34c0,47,38.46,85.46,85.46,85.46h203.93c22.68,0,43.36-8.97,58.7-23.52
	c35.78-28.88,57.34-74.75,61-82.95c24.69-58.7,38.35-123.18,38.35-190.86C985.51,220.61,764.9,0,492.76,0z M74.83,414.28l53.8,69.18
	c-29.84,11.91-51.54,40.2-53.8,73.61V414.28z M296.69,477.4H168.62l44.95-168.9L296.69,477.4z M771.94,308.5l44.95,168.9H688.82
	L771.94,308.5z M74.83,710.26c0.01,0.09,0.01,0.18,0.02,0.28l-0.02-0.02V710.26z M411,696.8c0,29.81-24.39,54.19-54.19,54.19H167.3
	c-29.81,0-54.19-24.39-54.19-54.19V570.68c0-29.81,24.39-54.19,54.19-54.19h189.51c29.81,0,54.19,24.39,54.19,54.19V696.8z
	 M538.07,562.86v51.34h-88.58v-51.34c0-47-38.46-85.46-85.46-85.46h-60.31l99.71-194.03l89.34,187.05l89.34-187.05L681.8,477.4
	h-58.28C576.52,477.4,538.07,515.86,538.07,562.86z M820.25,751H630.74c-29.81,0-54.19-24.39-54.19-54.19V570.68
	c0-29.81,24.39-54.19,54.19-54.19h189.51c29.81,0,54.19,24.39,54.19,54.19V696.8C874.44,726.61,850.05,751,820.25,751z
	 M857.35,482.84l55.57-71.45v151.47C912.92,526.36,889.73,495.03,857.35,482.84z"/>
<g>
	<path class="st0" d="M128.88,1089.17H76.53c-5.65-6.76-8.48-25.93-8.48-57.5v-0.33l0.33-14.29c0.33-19.83,0.5-29.97,0.5-30.41
		c0-8.09-5.43-12.13-16.29-12.13v114.34H0.24V850.52h64.65c14.73,0,27.56,3.38,38.47,10.14c10.91,6.76,16.37,17.45,16.37,32.08
		v28.59c0,18.5-10.8,31.02-32.41,37.56c21.71,5.1,32.57,18.23,32.57,39.39l-0.83,26.09
		C119.07,1062.47,122.34,1084.08,128.88,1089.17z M68.72,932.91v-39.32c0-8.33-5.38-12.5-16.12-12.5v64.48
		C63.34,945.58,68.72,941.36,68.72,932.91z"/>
	<path class="st0" d="M277.46,1088.84h-51.87l-8.84-63.99h-23.23l-8.94,63.99H132.7l39.15-238.32h66.38L277.46,1088.84z
		 M212.53,991.78L205,920.65l-7.13,71.13H212.53z"/>
	<path class="st0" d="M336.79,1001.09v87.75h-51.02V850.52h55.01c21.83,0,38.03,2.77,48.61,8.31c10.58,5.54,15.87,16.84,15.87,33.9
		v66.15c0,15.62-4.32,26.67-12.96,33.16C383.66,998.51,365.15,1001.53,336.79,1001.09z M354.24,954.39v-57.17
		c0-8.42-5.82-12.63-17.45-12.63v82.43C348.42,967.02,354.24,962.81,354.24,954.39z"/>
	<path class="st0" d="M466.26,1088.84H413.9V850.52h52.35V1088.84z"/>
	<path class="st0" d="M475.89,1088.84V850.52h65.33c14.22,0,26.88,3.85,38,11.55c11.11,7.7,16.67,19.53,16.67,35.48v144.26
		c0,14.85-5.2,26.4-15.58,34.65c-10.39,8.26-23.3,12.38-38.75,12.38H475.89z M543.2,1045.62V893.57c0-8.32-4.99-12.48-14.96-12.48
		v177.16C538.22,1058.26,543.2,1054.04,543.2,1045.62z"/>
	<path class="st0" d="M606.19,1048.12v-153.4c0-30.91,20.03-46.37,60.08-46.37c39.5,0,59.25,15.35,59.25,46.04v153.4
		c0,13.85-5.51,24.51-16.51,31.99c-11.01,7.48-25.37,11.22-43.07,11.22C626.11,1091,606.19,1076.71,606.19,1048.12z M674.5,1050.61
		V888.24c0-4.76-2.83-7.15-8.48-7.15c-5.87,0-8.81,2.38-8.81,7.15v162.37c0,4.77,2.93,7.15,8.81,7.15
		C671.67,1057.76,674.5,1055.38,674.5,1050.61z"/>
	<path class="st0" d="M736.49,993.44h47.53v54.68c0,5.43,3.3,8.14,9.89,8.14c6.37,0,9.55-2.71,9.55-8.14v-28.25
		c0-8.64-5.76-18.78-17.28-30.41c-22.27-21.61-36.12-36.12-41.55-43.54c-5.43-7.42-8.14-15.57-8.14-24.43v-26.76
		c0-30.91,20.19-46.37,60.58-46.37c36.17,0,54.26,14.07,54.26,42.21v41.22H803.8v-43.88c0-4.76-2.66-7.15-7.96-7.15
		c-6.21,0-9.32,4.6-9.32,13.79l1,15.46c0,8.87,5.88,19.17,17.66,30.91c21.88,20.94,35.79,35.57,41.73,43.88
		c5.94,8.31,8.91,17.73,8.91,28.25v30.41c0,31.69-20.25,47.53-60.75,47.53c-39.06,0-58.58-14.4-58.58-43.21V993.44z"/>
	<path class="st0" d="M866.45,1048.12v-153.4c0-30.91,20.03-46.37,60.08-46.37c39.5,0,59.25,15.35,59.25,46.04v153.4
		c0,13.85-5.5,24.51-16.51,31.99c-11.01,7.48-25.37,11.22-43.07,11.22C886.37,1091,866.45,1076.71,866.45,1048.12z M934.76,1050.61
		V888.24c0-4.76-2.83-7.15-8.48-7.15c-5.87,0-8.81,2.38-8.81,7.15v162.37c0,4.77,2.93,7.15,8.81,7.15
		C931.94,1057.76,934.76,1055.38,934.76,1050.61z"/>
</g>
</svg>