<svg version="1.1" xmlns="http://www.w3.org/2000/svg" xmlns:xlink="http://www.w3.org/1999/xlink" x="0px" y="0px"
	 width="985.51px" height="790.39px" viewBox="0 0 985.51 790.39" style="enable-background:new 0 0 985.51 790.39;"
	 xml:space="preserve">
<defs>
</defs>
<path d="M492.76,0C220.61,0,0,220.61,0,492.76c0,67.42,13.55,131.67,38.06,190.19c3.89,8.88,51.62,113.82,129.31,107.14h196.66
	c47,0,85.46-38.46,85.46-85.46v-51.34h88.58v51.34c0,47,38.46,85.46,85.46,85.46h203.93c22.68,0,43.36-8.97,58.7-23.52
	c35.78-28.88,57.34-74.75,61-82.95c24.69-58.7,38.35-123.18,38.35-190.86C985.51,220.61,764.9,0,492.76,0z M74.83,414.28l53.8,69.18
	c-29.84,11.91-51.54,40.2-53.8,73.61V414.28z M296.69,477.4H168.62l44.95-168.9L296.69,477.4z M771.94,308.5l44.95,168.9H688.82
	L771.94,308.5z M74.83,710.26c0.01,0.09,0.01,0.18,0.02,0.28l-0.02-0.02V710.26z M411,696.8c0,29.81-24.39,54.19-54.19,54.19H167.3
	c-29.81,0-54.19-24.39-54.19-54.19V570.68c0-29.81,24.39-54.19,54.19-54.19h189.51c29.81,0,54.19,24.39,54.19,54.19V696.8z
	 M538.07,562.86v51.34h-88.58v-51.34c0-47-38.46-85.46-85.46-85.46h-60.31l99.71-194.03l89.34,187.05l89.34-187.05L681.8,477.4
	h-58.28C576.52,477.4,538.07,515.86,538.07,562.86z M820.25,751H630.74c-29.81,0-54.19-24.39-54.19-54.19V570.68
	c0-29.81,24.39-54.19,54.19-54.19h189.51c29.81,0,54.19,24.39,54.19,54.19V696.8C874.44,726.61,850.05,751,820.25,751z
	 M857.35,482.84l55.57-71.45v151.47C912.92,526.36,889.73,495.03,857.35,482.84z"/>
</svg>